<?xml version="1.0" encoding="utf-8"?>
<!DOCTYPE svg PUBLIC "-//W3C//DTD SVG 1.0//EN" "http://www.w3.org/TR/2001/REC-SVG-20010904/DTD/svg10.dtd">
<svg version="1.0" xmlns="http://www.w3.org/2000/svg" width="500px" height="500px" viewBox="0 0 500 500" preserveAspectRatio="xMidYMid meet">
 <g fill="#ffffff">
  <path d="M0 250 l0 -250 250 0 250 0 0 250 0 250 -250 0 -250 0 0 -250z m263.65 192.30 c1.70 -0.20 3 -0.65 3.15 -1.05 0.20 -0.50 1.30 -0.65 4.15 -0.60 2.25 0.05 4.20 -0.15 4.60 -0.50 0.40 -0.30 2.25 -0.90 4.20 -1.30 1.90 -0.45 3.75 -1.15 4.05 -1.60 0.35 -0.45 1.35 -0.75 2.60 -0.75 2.50 0 3.60 -0.40 3.60 -1.30 0 -0.50 0.60 -0.70 2 -0.70 1.45 0 2.15 -0.25 2.60 -1 0.35 -0.55 1.20 -1 1.90 -1 1.70 0 12.50 -5.45 12.50 -6.30 0 -0.40 0.45 -0.70 1 -0.70 1.50 0 4 -1.40 4 -2.25 0 -0.45 0.50 -0.75 1.30 -0.75 0.85 0 1.40 -0.30 1.55 -1 0.15 -0.60 0.70 -1 1.35 -1 1.30 -0.05 7.35 -4.80 7.65 -6.05 0.15 -0.55 0.70 -0.95 1.20 -0.95 2 0 13.70 -12.45 19.60 -20.85 3 -4.25 2.15 -3.55 -2.10 1.70 -3.30 4.10 -5.95 6.75 -12.25 12.40 -0.30 0.30 -1.40 1.15 -2.45 1.90 -1.05 0.80 -2.25 1.80 -2.75 2.30 -0.80 0.80 -2.50 2.05 -4.55 3.30 -5.05 3.15 -6.05 4.05 -6.05 5.35 0 1.25 -0.20 1.40 -1.70 1.40 -0.95 0 -1.80 -0.20 -1.90 -0.50 -0.10 -0.25 -0.70 -0.15 -1.40 0.25 -0.70 0.40 -1.60 0.85 -2 1 -0.40 0.20 -1.90 0.90 -3.25 1.55 -1.40 0.65 -2.85 1.20 -3.25 1.20 -0.40 0 -1.20 0.35 -1.70 0.75 -0.55 0.40 -1.45 0.75 -2.05 0.75 -0.55 0 -1.80 0.40 -2.75 0.95 -0.95 0.50 -2.80 1.05 -4.10 1.25 -1.30 0.20 -3 0.65 -3.75 1 -0.75 0.40 -3.40 0.85 -5.80 1 -5.40 0.45 -5.85 0.60 -5.85 2.10 0 1.05 -0.25 1.20 -1.75 1.20 -1.20 0 -1.75 -0.25 -1.75 -0.75 0 -0.65 -1.40 -0.75 -9.75 -0.75 -8.35 0 -9.75 0.10 -9.75 0.75 0 0.55 -0.55 0.75 -2 0.75 -1.80 0 -2 -0.15 -2 -1.20 0 -1.30 -0.50 -1.50 -4.85 -2.10 -2.25 -0.30 -2.65 -0.20 -2.65 0.50 0 0.60 -0.45 0.80 -1.70 0.80 -1.40 0 -1.75 -0.20 -1.90 -1.10 -0.20 -1.35 -2.90 -2.60 -3.25 -1.50 -0.15 0.30 -1 0.60 -1.95 0.60 -1.45 0 -1.70 -0.15 -1.70 -1.20 0 -1.25 -0.30 -1.45 -3.50 -2.10 -0.95 -0.15 -2.15 -0.60 -2.70 -1 -0.60 -0.40 -1.75 -0.55 -3.35 -0.35 -2.40 0.30 -2.45 0.25 -2.45 -1 0 -1.10 -0.30 -1.40 -1.85 -1.80 -1.05 -0.30 -2.50 -0.55 -3.25 -0.55 -2.05 0 -2.90 -0.50 -2.90 -1.70 0 -0.70 -0.65 -1.40 -2.15 -2.25 -2.70 -1.50 -5.75 -3.45 -7.50 -4.90 -0.80 -0.65 -2.10 -1.15 -2.90 -1.15 -1.25 0 -1.45 -0.20 -1.45 -1.40 0 -0.90 -0.40 -1.60 -1.20 -2.10 -1.45 -0.90 -7.90 -7.15 -10.25 -9.95 -1.10 -1.30 -2.15 -2.05 -2.90 -2.05 -0.90 0 -1.15 -0.30 -1.15 -1.25 0 -0.65 -1.05 -2.75 -2.35 -4.60 -2.90 -4.15 -3.35 -4.65 -4.35 -4.65 -0.50 0 -0.80 -0.45 -0.80 -1.25 0 -0.80 -0.30 -1.25 -0.75 -1.25 -0.45 0 -0.75 -0.45 -0.75 -1.10 0 -2.15 -0.60 -3.40 -1.55 -3.40 -0.60 0 -0.95 -0.35 -0.95 -1 0 -0.55 -0.20 -1 -0.50 -1 -0.25 0 -0.50 -0.45 -0.50 -1 0 -0.55 -0.20 -1 -0.50 -1 -0.25 0 -0.50 -0.55 -0.50 -1.25 0 -0.70 -0.20 -1.25 -0.50 -1.25 -0.25 0 -0.50 -0.55 -0.50 -1.25 0 -0.70 -0.20 -1.25 -0.50 -1.25 -0.25 0 -0.50 -0.85 -0.50 -1.95 0 -3.40 -0.50 -5.05 -1.65 -5.05 -0.85 0 -0.95 -0.25 -0.70 -2.30 0.30 -2.75 -0.05 -4.20 -0.95 -4.20 -0.45 0 -0.70 -0.60 -0.70 -1.75 0 -1.20 0.25 -1.75 0.75 -1.75 0.60 0 0.75 -0.90 0.70 -5.10 -0.05 -2.85 -0.15 -4.75 -0.30 -4.25 -0.15 0.60 -0.75 0.85 -1.95 0.85 l-1.75 0 -0.05 -2.85 c0 -1.60 0 -8.05 0 -14.30 0.05 -9.50 0.15 -11.55 0.80 -12 1 -0.80 1.95 -7.70 1.50 -11.15 -0.25 -2.30 -0.20 -2.85 0.55 -3.40 0.55 -0.40 1 -1.85 1.35 -4.60 0.30 -2.15 0.85 -4.80 1.30 -5.85 0.45 -1.10 0.75 -3.15 0.70 -4.85 -0.05 -2.15 0.10 -2.95 0.65 -3.20 0.50 -0.20 0.75 -1 0.75 -2.70 0 -4.40 2.95 -9.05 6.25 -9.90 0.60 -0.15 3.05 -0.20 5.40 -0.10 2.35 0.10 4.15 0 3.95 -0.15 -1.05 -0.95 -4.30 -1.50 -7.05 -1.15 -2.15 0.25 -3.05 0.15 -3.05 -0.25 0 -0.30 -0.35 -0.55 -0.80 -0.55 -0.70 0 -0.80 -0.40 -0.55 -2.35 0.15 -1.35 0.55 -2.50 1.05 -2.75 0.50 -0.30 0.80 -1.15 0.80 -2.40 0 -1.10 0.25 -2 0.50 -2 0.30 0 0.50 -0.50 0.50 -1.10 0 -1.95 0.60 -3.40 1.30 -3.40 0.40 0 0.70 -0.40 0.70 -0.90 0 -0.50 0.30 -1.30 0.70 -1.85 0.35 -0.55 0.85 -1.80 1.05 -2.75 0.20 -0.95 0.70 -2.20 1.05 -2.75 0.40 -0.55 0.70 -1.80 0.70 -2.85 0 -1.30 0.20 -1.90 0.70 -1.90 0.80 0 1.80 -2.50 1.80 -4.55 0 -0.90 0.25 -1.45 0.70 -1.45 0.70 0 2.30 -4.10 2.30 -5.85 0 -0.50 0.45 -1.20 1 -1.55 0.70 -0.40 1 -1.15 1 -2.30 0 -0.95 0.30 -1.80 0.65 -1.95 0.90 -0.35 3.85 -6.45 3.85 -7.95 0 -0.75 0.30 -1.65 0.65 -2 0.40 -0.35 0.85 -1.30 1.05 -2.05 0.15 -0.75 0.60 -1.35 1 -1.35 0.85 0 1.80 -2.15 1.80 -4 0 -1 0.25 -1.50 0.75 -1.50 0.50 0 0.75 -0.50 0.75 -1.45 0 -1 0.30 -1.50 1 -1.70 0.65 -0.15 1.10 -0.85 1.30 -1.80 0.20 -0.85 0.65 -1.80 1 -2.10 0.40 -0.30 0.70 -1.10 0.70 -1.75 0 -1.55 2.55 -6.70 3.30 -6.70 0.65 0 1.20 -1.10 1.20 -2.55 0 -0.50 0.20 -0.95 0.45 -0.95 0.25 0 0.55 -0.65 0.70 -1.45 0.20 -0.85 0.70 -1.50 1.30 -1.70 0.70 -0.15 1.05 -0.65 1.05 -1.50 0 -1.75 0.50 -2.85 1.25 -2.85 0.70 0 1.25 -1.10 1.25 -2.55 0 -0.50 0.35 -0.95 0.75 -0.95 0.45 0 0.75 -0.45 0.75 -1.10 0 -1.40 0.50 -2.10 1.65 -2.55 0.55 -0.20 0.85 -0.85 0.85 -1.85 0 -0.85 0.25 -1.50 0.65 -1.50 0.70 0 2.35 -2.70 2.35 -3.90 0 -0.50 0.45 -1.15 1 -1.50 0.55 -0.35 1 -1.15 1 -1.85 0 -0.70 0.30 -1.25 0.65 -1.25 0.80 0 2.35 -2.60 2.35 -3.95 0 -0.60 0.20 -1.05 0.45 -1.05 0.25 0 0.60 -0.55 0.75 -1.25 0.20 -0.70 0.55 -1.25 0.80 -1.25 0.30 0 0.50 -0.35 0.50 -0.75 0 -0.40 0.35 -0.75 0.75 -0.75 0.45 0 0.75 -0.45 0.75 -1.25 0 -0.75 0.30 -1.25 0.70 -1.25 0.85 0 2.80 -3.15 2.80 -4.50 0 -0.50 0.35 -1.25 0.75 -1.70 0.40 -0.40 0.75 -0.95 0.75 -1.25 0 -0.30 0.25 -0.55 0.50 -0.55 0.30 0 0.50 -0.35 0.50 -0.75 0 -0.40 0.35 -0.75 0.75 -0.75 0.45 0 0.75 -0.45 0.75 -1.25 0 -0.70 0.25 -1.25 0.50 -1.25 0.30 0 0.50 -0.35 0.50 -0.75 0 -0.40 0.30 -0.75 0.70 -0.75 0.90 0 2.80 -3 2.80 -4.45 0 -0.55 0.25 -1.05 0.50 -1.05 0.30 0 0.50 -0.35 0.50 -0.75 0 -0.40 0.30 -0.75 0.65 -0.75 0.80 -0.05 3.85 -4.80 3.85 -6.05 0 -0.70 0.35 -0.95 1.45 -0.95 2.55 0 4.05 0.85 4.05 2.25 0 2.20 1.35 4.75 2.45 4.75 0.85 0 1.05 0.30 1.05 1.75 0 0.95 -0.20 1.75 -0.50 1.75 -0.25 0 -0.50 0.25 -0.50 0.50 0 0.30 0.55 0.50 1.20 0.50 0.80 0 1.30 0.35 1.50 1.15 0.45 1.75 0.35 3.85 -0.20 3.85 -0.30 0 -0.20 0.65 0.25 1.50 0.45 0.90 1.15 1.50 1.75 1.50 0.80 0 1 0.35 1 1.75 0 1.25 0.20 1.75 0.80 1.75 0.60 0 0.75 0.45 0.65 2.15 -0.05 1.15 0.05 2.55 0.25 3.10 0.80 1.95 7.35 15.05 8.55 17 0.70 1.10 1.60 2.70 2 3.50 0.40 0.85 1.75 3.10 3 5 1.20 1.95 2.90 4.70 3.75 6.15 1.20 2 1.85 2.60 2.80 2.60 1.05 0 1.20 0.25 1.20 1.75 0 2.35 1.30 4.25 2.80 4.25 1 0 1.20 0.25 1.20 1.50 0 1.15 0.20 1.50 1 1.50 0.80 0 1 0.35 1 1.75 0 1.55 0.15 1.75 1.25 1.75 1.05 0 1.25 0.25 1.25 1.50 0 1.15 0.20 1.50 1 1.50 0.80 0 1 0.35 1 1.65 0 2.20 3.10 6.35 4.80 6.35 0.95 0 1.15 0.30 1.30 1.90 0.15 1.60 0.35 1.85 1.50 2 1.15 0.15 1.35 0.40 1.50 2 0.15 1.60 0.35 1.85 1.55 2 1.15 0.15 1.35 0.40 1.35 1.80 0 1.90 0.75 2.80 2.35 2.80 0.90 0 1.15 0.30 1.15 1.25 0 1.90 1.40 3.75 2.80 3.75 1 0 1.20 0.25 1.20 1.65 0 1.95 0.75 2.85 2.35 2.85 0.95 0 1.15 0.25 1.15 1.55 0 1.25 1.15 3 5.40 8.40 7.15 9 11.85 15.15 17.60 23 2.60 3.60 4.80 6.45 4.85 6.35 0.10 -0.10 -4.80 -7.60 -10.90 -16.75 -8.05 -12.05 -11.30 -16.55 -12 -16.55 -0.70 0 -0.95 -0.35 -0.95 -1.50 0 -1.15 -0.20 -1.50 -1 -1.50 -0.80 0 -1 -0.35 -1 -1.50 0 -1.15 -0.20 -1.50 -1 -1.50 -0.75 0 -1 -0.35 -1 -1.50 0 -1.85 -3.40 -7 -4.60 -7 -0.65 0 -0.90 -0.40 -0.90 -1.50 0 -1.15 -0.20 -1.50 -1 -1.50 -0.75 0 -1 -0.35 -1 -1.25 0 -0.80 -0.30 -1.25 -0.75 -1.25 -0.45 0 -0.75 -0.45 -0.75 -1.20 0 -1.85 -0.50 -2.80 -1.55 -2.80 -0.70 0 -0.95 -0.35 -0.95 -1.50 0 -1.25 -1.55 -4.40 -5.50 -11 -0.25 -0.40 -0.75 -1.35 -1.10 -2.10 -1.75 -3.55 -3.75 -6.40 -4.45 -6.40 -0.95 0 -1.45 -1 -1.45 -2.85 0 -1.90 -3.60 -9.10 -4.55 -9.15 -1 0 -1.95 -2.05 -1.95 -4.30 0 -1.35 -0.25 -1.85 -1 -2.05 -0.55 -0.15 -1 -0.70 -1 -1.20 0 -0.55 -0.20 -0.95 -0.45 -0.95 -0.20 0 -0.55 -1.35 -0.70 -2.95 -0.25 -3 -1.50 -5.50 -2.70 -5.55 -0.40 0 -0.65 -0.80 -0.65 -2.10 -0.05 -1.20 -0.50 -3.40 -1.05 -4.90 -0.55 -1.50 -1.25 -3.80 -1.55 -5.10 -0.40 -1.85 -0.75 -2.40 -1.50 -2.40 -0.85 0 -0.95 -0.30 -0.90 -2.10 0.25 -4.20 0.10 -4.90 -1.05 -4.90 -1 0 -1.05 -0.20 -0.80 -2.35 0.35 -3.35 -0.10 -5.75 -1.20 -6 -0.65 -0.20 -1 -0.95 -1.25 -3.05 -0.20 -1.80 -0.15 -2.85 0.20 -3 0.70 -0.20 0.15 -2.10 -0.65 -2.10 -0.85 0 -1.25 -3.80 -0.90 -8.85 0.25 -3.65 0.20 -4.15 -0.55 -4.15 -0.60 0 -0.80 -0.45 -0.80 -1.75 0 -1.05 0.25 -1.75 0.65 -1.75 0.45 0 0.60 -3.85 0.60 -17.85 0 -13.50 0.15 -18 0.60 -18.40 0.70 -0.55 1.45 -8.20 0.95 -9.55 -0.30 -0.75 -0.60 -0.60 -2.30 1.05 -1.60 1.60 -2 2.30 -2 3.80 0 2.15 -0.65 2.80 -3 3.05 -1.55 0.15 -2.65 1.10 -8.85 7.65 -6.55 6.90 -7.10 7.65 -7.15 9.40 0 1.75 -0.10 1.85 -1.55 1.85 -1.30 0 -2.15 0.60 -4.75 3.40 -2.70 2.85 -3.15 3.60 -3.20 5.25 0 1.75 -0.10 1.85 -1.65 1.85 -2.35 0 -4 1.85 -4.35 4.90 -0.25 2.15 -0.40 2.35 -1.75 2.60 -2.10 0.35 -2.75 0.85 -5.25 4.10 -4.70 6 -5 6.50 -5 8.50 0 1.85 -0.05 1.90 -1.70 1.90 -1.90 0 -2.30 0.60 -2.30 3.30 0 1.55 -0.15 1.70 -1.50 1.70 -2.20 0 -4.75 3.35 -4.55 6.05 0.10 1.85 0.05 1.95 -1.30 1.95 -1.55 0 -2.60 1 -5.15 4.75 -1.30 1.90 -1.65 2.90 -1.55 4.35 0.10 1.85 0.10 1.90 -1.65 1.90 -1.15 0 -1.80 0.25 -1.80 0.65 0 0.35 -0.25 0.90 -0.60 1.25 -0.35 0.35 -0.55 1.50 -0.45 2.60 0.10 1.75 0 2 -0.90 2 -0.85 0 -1.05 0.30 -1.05 1.50 0 1.25 -0.20 1.50 -1.25 1.50 -1.15 0 -3.70 2.10 -3.75 3.10 0 0.20 -0.95 1.75 -2.10 3.40 -1.75 2.60 -2.05 3.40 -1.95 5.30 0.10 2.20 0.10 2.20 -1.55 2.20 -1.35 0 -1.80 0.30 -2.30 1.35 -0.90 2 -2.45 4.70 -3 5.25 -0.25 0.25 -0.35 1.45 -0.20 2.70 0.20 2.15 0.20 2.20 -1.20 2.20 -0.95 0.05 -1.75 0.45 -2.35 1.25 -0.50 0.70 -0.65 1.25 -0.35 1.25 0.25 0 0.50 0.80 0.50 1.75 0 1.60 -0.10 1.75 -1.45 1.75 -0.85 0 -1.65 0.25 -1.80 0.50 -0.15 0.30 -0.05 0.50 0.20 0.50 0.30 0 0.55 0.80 0.55 1.75 0 1.60 -0.15 1.75 -1.40 1.75 -1.55 0 -2.40 1.30 -7.10 11 -1.40 2.90 -2.75 5.60 -3 6 -0.30 0.40 -0.75 1.30 -1 2 -1 2.35 -2.75 5.75 -3.45 6.65 -0.60 0.75 -0.60 0.85 0.10 0.85 0.65 0 0.85 0.45 0.85 1.75 0 1.50 -0.15 1.75 -1.20 1.75 -0.70 0 -1.40 0.25 -1.55 0.50 -0.15 0.30 -0.05 0.50 0.20 0.50 0.30 0 0.55 0.75 0.55 1.70 0 1.50 -0.15 1.75 -1.35 1.90 -1.50 0.15 -3.35 2.90 -2.25 3.30 0.75 0.25 0.80 3.60 0.10 3.60 -0.25 0 -0.50 0.55 -0.50 1.25 0 1 -0.25 1.25 -1.25 1.25 -1.45 0 -3.05 2.50 -1.85 2.90 0.30 0.10 0.60 0.95 0.60 1.90 0 1.55 -0.15 1.70 -1.50 1.70 -1.25 0 -1.50 0.20 -1.80 1.75 -0.15 0.95 -0.75 2.60 -1.25 3.60 -1.05 2.05 -1.25 3.65 -0.45 3.65 0.30 0 0.50 0.75 0.50 1.70 0 1.50 -0.15 1.75 -1.35 1.90 -1.15 0.10 -1.45 0.45 -1.70 2 -0.15 1 -0.50 2.15 -0.80 2.50 -0.90 1.10 -1.10 3.40 -0.35 3.40 0.45 0 0.70 0.60 0.70 1.70 0 1.50 -0.15 1.75 -1.35 1.90 -1.25 0.15 -1.45 0.40 -2 3.15 -0.30 1.65 -0.90 3.90 -1.35 5 -0.95 2.55 -1 3.75 -0.05 3.75 0.50 0 0.75 0.55 0.75 1.75 0 1.55 -0.15 1.75 -1.25 1.75 -1 0 -1.35 0.30 -1.55 1.50 -0.30 1.30 -0.55 1.50 -2 1.50 l-1.70 0 0 -6.25 c0 -3.85 -0.20 -6.25 -0.50 -6.25 -0.30 0 -0.50 3.40 -0.50 9.25 l0 9.25 -11 0 -11 0 0 -9.25 c0 -5.85 -0.20 -9.25 -0.50 -9.25 -0.30 0 -0.50 6.75 -0.50 19.25 0 12.50 0.20 19.25 0.50 19.25 0.30 0 0.50 -3.40 0.50 -9.25 l0 -9.25 10.90 0 10.95 0 0.30 13.90 c0.20 7.60 0.35 17.80 0.35 22.65 0 9.25 0.45 11.95 2 11.95 1.30 0 1.95 6.10 0.80 7.30 -1.40 1.40 -0.60 4.20 1.20 4.20 0.80 0 1 0.35 1 1.75 0 0.95 -0.20 1.75 -0.50 1.75 -0.65 0 -0.65 2.65 0 3.30 0.30 0.30 0.85 1.85 1.25 3.45 0.45 1.60 1 3.20 1.20 3.45 0.25 0.30 0.60 1.35 0.80 2.30 0.45 2.20 1.10 3 2.35 3 0.80 0 0.95 0.30 0.85 1.90 -0.15 2.35 0.20 3.50 2.45 8 1.45 2.85 2 3.60 2.90 3.60 1 0 1.15 0.30 1.30 2.40 0.15 2.15 0.25 2.35 1.55 2.50 1.20 0.15 1.35 0.40 1.35 1.90 0 2.80 4.40 8.70 6.45 8.70 0.85 0 1.05 0.30 1.05 1.60 0 1.90 1.25 3.40 2.85 3.40 0.95 0 1.15 0.25 1.15 1.45 0 1.10 0.85 2.20 4.15 5.35 6.75 6.45 9.60 8.70 11.05 8.70 0.90 0 1.30 0.25 1.30 0.90 0 1.30 1 2.10 2.60 2.10 1.05 0 1.40 0.25 1.40 0.95 0 1.40 2.35 3.05 4.30 3.05 1.35 0 1.70 0.20 1.70 1 0 1.10 1.40 2 3.20 2 1.85 0 2.80 0.50 2.80 1.45 0 1.25 6.70 4.55 9.15 4.55 1.50 0 1.85 0.20 1.85 1 0 0.85 0.35 1 2.45 1 2 0 2.50 0.20 2.70 0.95 0.15 0.70 0.85 1.10 2.15 1.30 1.10 0.15 2.60 0.65 3.40 1.10 0.95 0.55 2.55 0.80 4.35 0.75 2.40 -0.05 2.90 0.05 3.10 0.85 0.20 0.80 0.90 1 3.65 1.30 1.90 0.20 4.45 0.65 5.70 1 1.25 0.40 3.05 0.75 4 0.85 3.40 0.30 23.30 0.05 26.15 -0.30z m46.20 -136.50 c1.35 -0.45 0.55 -0.55 -4.75 -0.55 -3.50 0 -6.90 -0.15 -7.60 -0.35 -0.70 -0.20 -0.45 -0.05 0.50 0.40 3.65 1.65 7.95 1.85 11.85 0.50z m-117.85 0.25 c0 -0.80 -2.25 -1.05 -10.60 -1.05 l-8.35 0 -0.15 -1.20 c-0.15 -1.20 -0.20 -1.20 -2.25 0.75 l-2.10 1.95 11.70 0 c6.45 0 11.75 -0.20 11.75 -0.45z m36 -14.60 l0 -15.05 1.95 0.20 1.95 0.15 -1.80 -2.50 c-3.35 -4.70 -3.10 -5.80 -3.10 14.15 0 11.75 0.20 18.10 0.50 18.10 0.30 0 0.50 -5.35 0.50 -15.05z m23.50 -5.20 c0 -15.90 -0.10 -18.25 -0.75 -18.25 -0.65 0 -0.75 2 -0.75 15 l0 15 -1.50 0 c-0.80 0 -1.50 0.10 -1.50 0.25 0 0.35 4.10 6.25 4.35 6.25 0.10 0 0.15 -8.20 0.15 -18.25z m113.20 12 c0.25 -0.90 0.10 -1 -1.60 -0.85 l-1.85 0.20 -2.20 -10.45 c-2.95 -14.35 -4.10 -19.25 -4.40 -18.95 -0.15 0.10 0.10 1.95 0.55 4.05 1.20 5.85 1.15 6.25 -0.95 6.25 -1 0 -1.75 -0.25 -1.75 -0.60 0 -0.30 -0.10 -0.45 -0.25 -0.30 -0.15 0.15 -0.15 0.65 0.05 1.10 0.20 0.55 0.90 0.80 2.25 0.80 1.90 0 1.95 0.05 1.95 1.75 0 1.05 -0.25 1.75 -0.60 1.75 -0.35 0 -0.10 0.30 0.55 0.65 1.40 0.65 1.50 1.05 4.10 13.25 l1.60 7.70 1.10 -2.70 c0.65 -1.45 1.25 -3.10 1.45 -3.65z m27.70 -11.35 c2.05 -9.45 3.80 -17.60 3.95 -18.15 0.15 -0.65 0.10 -0.85 -0.25 -0.50 -0.25 0.30 -1.75 6.60 -3.30 14 -1.60 7.45 -2.95 13.90 -3.10 14.40 -0.20 0.60 -0.80 0.85 -2.05 0.85 -1.20 0 -1.70 0.20 -1.50 0.65 0.10 0.30 0.65 1.80 1.15 3.25 0.50 1.40 1.05 2.60 1.20 2.60 0.15 0 1.90 -7.70 3.90 -17.10z m-209.40 5.35 c3.15 -3.15 5.60 -5.75 5.50 -5.75 -0.15 0 -2.85 2.60 -6 5.75 -3.15 3.15 -5.60 5.75 -5.50 5.75 0.15 0 2.85 -2.60 6 -5.75z m103.45 0 c-0.55 -1.90 -0.35 -9.15 0.25 -11.75 0.20 -0.70 -0.10 -0.10 -0.65 1.25 -1.20 3.10 -1.30 6.75 -0.25 10.20 0.90 3 1.45 3.25 0.65 0.30z m37.40 -6 c-0.10 -1.90 -0.55 -4.30 -1 -5.25 -0.45 -0.95 -0.65 -1.20 -0.45 -0.50 0.20 0.70 0.35 3.90 0.35 7.10 0 5.45 0.05 5.75 0.65 4 0.40 -1.10 0.60 -3.25 0.45 -5.35z m-133.85 -2.35 c1.95 -4.25 0.80 -9.05 -2.95 -12.50 l-1.75 -1.65 1.85 2.10 c1 1.15 2 2.75 2.20 3.50 0.60 2.10 0.40 8.25 -0.30 9.55 -0.30 0.60 -0.45 1.10 -0.30 1.10 0.15 0 0.75 -0.95 1.25 -2.10z m187 -10.15 c0 -0.15 -0.35 -1.10 -0.80 -2.15 l-0.80 -1.85 -0.70 1.50 c-1 2.25 -0.85 2.75 0.80 2.75 0.85 0 1.50 -0.10 1.50 -0.25z m-65.50 -4.45 c0 -0.50 -5.50 -1.80 -7.35 -1.75 -1.05 0 -2.70 0.35 -3.65 0.70 -1.65 0.65 -1.55 0.65 2 0.45 2.05 -0.15 4.75 -0.05 6 0.20 2.90 0.65 3 0.65 3 0.40z"/>
 </g>
 <g fill="#2da7db">
  <path d="M236 444.10 c-0.95 -0.10 -2.75 -0.45 -4 -0.85 -1.25 -0.35 -3.70 -0.80 -5.45 -1 -1.80 -0.15 -3.80 -0.60 -4.50 -0.95 -0.70 -0.35 -2.30 -0.80 -3.50 -1 -1.20 -0.20 -2.80 -0.65 -3.50 -1 -0.70 -0.40 -2.20 -0.90 -3.30 -1.20 -2.55 -0.65 -7.35 -2.35 -8.55 -3 -0.50 -0.30 -3.30 -1.70 -6.20 -3.10 -9.25 -4.55 -14.10 -7.65 -21.95 -13.95 -6.40 -5.10 -15.30 -13.80 -18.05 -17.55 -1.25 -1.70 -3 -3.90 -3.90 -4.90 -0.90 -1.05 -2.20 -2.85 -2.95 -4.10 -0.70 -1.25 -1.85 -2.95 -2.50 -3.80 -0.60 -0.85 -1.15 -1.75 -1.15 -1.95 0 -0.25 -0.30 -0.80 -0.70 -1.20 -0.70 -0.80 -4.60 -8.50 -6.30 -12.30 -0.45 -1.10 -1.20 -2.80 -1.65 -3.75 -0.45 -0.95 -0.95 -2.40 -1.15 -3.25 -0.20 -0.80 -0.55 -1.75 -0.75 -2.05 -0.25 -0.30 -0.80 -1.95 -1.20 -3.75 -0.45 -1.75 -1 -3.65 -1.20 -4.20 -0.90 -2.10 -2.65 -10.75 -2.40 -11.70 0.15 -0.55 0 -1.10 -0.35 -1.25 -0.40 -0.15 -0.35 -0.35 0.15 -0.70 0.45 -0.35 0.50 -0.55 0.10 -0.65 -0.95 -0.35 -1.55 -8.45 -1.55 -21.80 0 -12.45 0 -12.65 1.05 -12.65 1 0 1 -0.10 0.65 -10.15 -0.30 -9.20 -0.25 -10.20 0.50 -10.50 0.45 -0.20 0.80 -0.85 0.80 -1.50 0 -0.65 0.45 -3.40 1 -6.05 7.30 -34.90 22.35 -71.40 44.90 -108.80 7.25 -12.10 23.90 -37.10 25.60 -38.50 0.15 -0.15 1.40 -1.80 2.75 -3.75 5.40 -7.65 19.15 -24.80 27 -33.65 9.45 -10.75 11.45 -12.90 20 -21.85 4.70 -4.95 9.80 -10.30 11.25 -11.90 5.55 -6 7.10 -5.55 6.95 1.90 -0.05 2.50 -0.40 6.20 -0.75 8.25 -1.05 5.70 -1.05 42.30 0 45.70 0.40 1.35 0.90 4.05 1.10 6 0.15 1.95 0.65 4.30 1 5.20 0.35 0.90 0.80 2.85 1 4.25 0.20 1.45 0.60 3.15 0.95 3.85 0.35 0.70 0.80 2.25 1 3.50 0.20 1.25 0.65 2.95 1.05 3.75 0.35 0.85 0.90 2.40 1.15 3.50 0.25 1.10 1.10 3.60 1.80 5.50 0.75 1.95 1.60 4.30 1.90 5.25 0.30 0.95 0.85 2.10 1.20 2.55 0.35 0.40 0.65 1.10 0.65 1.45 0 0.40 0.45 1.65 1 2.85 0.55 1.20 1.45 3.20 2.05 4.50 1.95 4.45 8.15 16.90 8.45 17.15 0.20 0.15 0.50 0.70 0.70 1.25 0.15 0.55 1.05 2.20 2 3.60 0.95 1.45 1.90 3.15 2.05 3.75 0.20 0.65 0.65 1.50 1 1.90 0.30 0.40 1.80 2.90 3.25 5.50 1.50 2.60 2.85 4.85 3.10 4.90 0.20 0.10 0.40 0.50 0.40 0.85 0 0.35 0.50 1.30 1.15 2.10 1.25 1.55 5.35 8 5.40 8.55 0 0.20 0.80 1.35 1.70 2.60 0.95 1.25 2.40 3.40 3.25 4.80 0.80 1.45 1.85 2.85 2.25 3.20 0.40 0.35 0.75 0.80 0.75 1 0 0.20 5.30 8.30 11.75 18 6.45 9.70 11.75 17.70 11.75 17.80 0 0.20 1.70 2.90 4.35 6.80 0.65 0.90 1.40 2.25 1.70 3.05 0.30 0.75 0.85 1.35 1.20 1.35 0.70 0 1.25 1.55 1.25 3.65 0 1.20 -0.20 1.35 -1.70 1.35 -1.40 0 -1.80 -0.25 -2.25 -1.35 -0.50 -1.30 -3.20 -5.45 -4.65 -7.15 -0.35 -0.45 -1.30 -1.80 -2.15 -3 -4.55 -6.70 -16.25 -22.20 -26.10 -34.60 -3.95 -4.90 -7.15 -9.05 -7.15 -9.15 0 -0.25 -1.30 -1.90 -2.50 -3.20 -1.15 -1.20 -4.90 -6 -8.25 -10.55 -1.65 -2.20 -4.10 -5.45 -5.45 -7.15 -1.30 -1.70 -3.45 -4.65 -4.75 -6.55 -1.25 -1.90 -2.95 -4.40 -3.80 -5.60 -3.10 -4.40 -7.15 -10.50 -8.45 -12.70 -0.75 -1.25 -2.35 -3.80 -3.55 -5.75 -1.25 -1.90 -2.60 -4.15 -3 -5 -0.40 -0.80 -1.30 -2.40 -2 -3.50 -0.65 -1.10 -2.80 -5.25 -4.80 -9.25 -1.95 -4 -4 -8.05 -4.50 -9.05 -0.50 -1 -0.95 -2.15 -0.95 -2.50 0 -0.35 -0.30 -1 -0.65 -1.40 -0.40 -0.45 -1.05 -1.80 -1.45 -3.05 -0.45 -1.25 -1.05 -3.05 -1.40 -4 -0.40 -0.95 -1.05 -2.85 -1.50 -4.25 -0.50 -1.35 -1.15 -3.30 -1.50 -4.25 -0.35 -0.95 -0.90 -2.85 -1.20 -4.25 -1 -4.15 -1.05 -4.10 -8.95 8.25 -1.55 2.50 -3.10 4.40 -3.35 4.25 -0.25 -0.15 -0.40 0 -0.25 0.35 0.30 0.85 -2.95 6.20 -3.65 6.05 -0.30 -0.10 -0.45 0.15 -0.35 0.50 0.30 0.80 -4.95 9.15 -5.65 9 -0.35 -0.10 -0.45 0.20 -0.25 0.70 0.20 0.55 0.15 0.70 -0.25 0.45 -0.35 -0.20 -0.50 -0.10 -0.30 0.35 0.15 0.40 -0.50 1.85 -1.40 3.25 -0.90 1.40 -2.20 3.45 -2.85 4.55 -0.70 1.10 -1.40 1.90 -1.65 1.75 -0.20 -0.15 -0.25 0.05 -0.10 0.45 0.15 0.40 -0.25 1.50 -0.90 2.40 -0.65 0.95 -1.60 2.70 -2.10 3.85 -0.60 1.30 -1.20 2.05 -1.60 1.90 -0.45 -0.15 -0.55 0.05 -0.35 0.55 0.20 0.55 0.10 0.70 -0.25 0.45 -0.35 -0.20 -0.50 -0.10 -0.35 0.30 0.30 0.85 -3 6.70 -3.70 6.55 -0.25 -0.10 -0.40 0.15 -0.25 0.55 0.35 0.85 -2.75 6.40 -3.35 6 -0.25 -0.15 -0.35 0.05 -0.20 0.40 0.30 0.90 -1.40 4.20 -2.10 4.05 -0.30 -0.05 -0.45 0.25 -0.35 0.75 0.25 1.10 -0.95 3.40 -1.70 3.25 -0.30 -0.10 -0.45 0.20 -0.25 0.65 0.15 0.40 -0.20 1.40 -0.80 2.20 -0.55 0.80 -1.05 1.75 -1.05 2.10 0 1 -1.50 2.95 -2 2.65 -0.20 -0.15 -0.30 0.20 -0.15 0.80 0.20 0.60 -0.15 1.60 -0.80 2.45 -0.55 0.80 -1.05 1.70 -1.05 2 0 1.05 -1.55 3.55 -2 3.25 -0.30 -0.15 -0.35 0.05 -0.20 0.45 0.15 0.45 -1.05 3.60 -2.80 7.15 -1.70 3.55 -3.55 7.40 -4.10 8.65 -0.55 1.25 -1.40 3.15 -1.90 4.25 -1.40 3.20 -2.30 5.30 -3.70 9 -0.75 1.95 -1.75 4.40 -2.30 5.50 -0.55 1.10 -1.10 2.70 -1.30 3.50 -0.20 0.85 -0.65 1.95 -1 2.50 -0.30 0.55 -0.75 1.80 -0.95 2.75 -0.20 0.95 -0.65 2.20 -1 2.75 -0.35 0.55 -0.80 1.85 -0.95 2.90 -0.20 1.05 -0.75 2.30 -1.25 2.80 -0.60 0.60 -0.75 1.20 -0.50 1.85 0.95 2.35 0.50 3.65 -1.50 4.65 -2.95 1.50 -5.45 4.80 -6.25 8.30 -0.30 1.20 -0.25 1.40 0.25 0.90 1.45 -1.45 2.95 -0.45 2.95 1.85 0 1.20 -1.05 3.55 -1.45 3.30 -0.15 -0.10 -0.30 1.10 -0.35 2.70 0 1.60 -0.35 3.80 -0.80 4.85 -0.45 1.05 -1.05 3.60 -1.30 5.65 -0.30 2.05 -0.85 4.70 -1.20 5.90 -0.55 1.95 -0.55 2.25 0.25 2.65 1.05 0.60 1.15 2.45 0.15 2.45 -0.50 0 -0.85 0.80 -1.05 2.40 -0.20 1.30 -0.80 4.15 -1.35 6.35 -0.80 3.05 -1.05 5.85 -1.15 11.50 -0.05 4.15 0 7.80 0.15 8.15 0.10 0.30 0.65 0.60 1.15 0.60 0.60 0 0.95 0.35 0.95 1 0 0.55 -0.35 1 -0.75 1 -0.40 0 -0.75 0.45 -0.75 1 0 0.55 0.30 1 0.65 1 0.45 0 1.10 2.60 2.10 8.90 0.75 4.85 1.70 9.55 2.05 10.35 0.35 0.85 0.75 2.05 0.95 2.75 0.40 1.50 2.65 7.35 3.30 8.45 0.20 0.45 1.10 2.25 1.95 4.05 0.90 1.80 2.25 4.25 3.05 5.50 0.80 1.25 1.60 2.60 1.80 3 0.15 0.40 0.45 0.85 0.65 1 0.15 0.15 1.05 1.40 2 2.75 1.80 2.75 6 7.90 6.65 8.15 0.20 0.10 0.90 0.90 1.50 1.80 1 1.40 6.70 6.90 9.95 9.55 5.10 4.20 6.40 5.20 8.15 6.35 2.40 1.55 6.90 4.10 9.05 5.10 0.85 0.40 1.75 0.95 1.90 1.25 0.20 0.30 0.70 0.55 1.10 0.55 0.40 0 2.05 0.55 3.60 1.30 1.55 0.70 3.55 1.55 4.35 1.95 4.05 1.80 11.85 3.90 20.50 5.55 15.85 3 33.40 1.40 49.95 -4.60 13.40 -4.90 22.60 -10.30 33.80 -19.95 7.80 -6.75 13.10 -13 19.80 -23.25 3 -4.70 4.10 -6.65 6.10 -11 0.35 -0.70 0.80 -1.60 1.05 -2 0.25 -0.40 0.70 -1.40 1 -2.15 0.30 -0.80 1 -1.55 1.55 -1.70 1.10 -0.30 1.30 -0.95 0.40 -1.25 -0.45 -0.15 -0.50 -0.75 -0.15 -2.20 0.45 -1.75 0.70 -1.95 2.20 -2.10 1.55 -0.15 1.65 -0.10 1.05 0.65 -0.40 0.45 -0.65 1.55 -0.60 2.45 0.10 1 -0.25 2.15 -0.90 2.90 -0.55 0.75 -1 1.85 -1 2.50 0 0.60 -0.45 1.85 -1 2.65 -0.55 0.85 -1 1.85 -1 2.30 0 0.90 -4.10 9.30 -5.95 12.20 -0.70 1.10 -1.60 2.70 -2.05 3.50 -0.45 0.85 -1.05 1.45 -1.45 1.35 -0.35 -0.05 -0.45 0.10 -0.30 0.40 1.20 1.95 -19.95 26.10 -22.10 25.30 -0.40 -0.15 -0.60 -0.10 -0.45 0.15 0.55 0.85 -7.45 7.25 -8.55 6.80 -0.40 -0.10 -0.55 -0.05 -0.40 0.25 0.35 0.60 -2.05 2.20 -2.75 1.75 -0.30 -0.20 -0.45 -0.05 -0.40 0.30 0.20 0.70 -2.90 2.60 -11.10 6.80 -3.40 1.75 -6.65 3.10 -7.10 3 -0.50 -0.15 -0.80 -0.10 -0.70 0.10 0.40 0.65 -2.75 2.15 -3.95 1.95 -0.65 -0.15 -1.15 0 -1.10 0.25 0.05 0.30 -0.70 0.80 -1.65 1.10 -3.70 1.25 -7.15 2.35 -8.20 2.55 -3 0.55 -4.10 0.85 -4.60 1.25 -0.30 0.25 -1.85 0.55 -3.50 0.70 -1.60 0.20 -4.40 0.70 -6.20 1.15 -2.55 0.60 -6.15 0.80 -16.50 0.80 -7.30 0.05 -14.05 0 -15 -0.10z"/>
 </g>
 <g fill="#000000">
  <path d="M134.05 353.40 c0.05 -1.20 0.15 -1.70 0.30 -1.15 0.15 0.55 0.45 1.20 0.70 1.50 0.70 0.70 0.55 1.75 -0.30 1.75 -0.55 0 -0.75 -0.55 -0.70 -2.10z"/>
  <path d="M164.70 354.75 c0.15 -0.40 0.10 -0.75 -0.10 -0.75 -0.45 0 -2.15 -9.40 -2.10 -11.60 0 -0.90 0.25 -1.40 0.75 -1.40 0.40 0 0.75 -0.45 0.75 -1 0 -1 -0.60 -1.20 -2.85 -1 -0.85 0.05 -1.15 -0.20 -1.15 -0.95 0 -0.90 0.30 -1 4.90 -0.90 3.95 0.10 4.85 0.25 4.85 0.85 0 0.50 -0.60 0.80 -1.85 0.90 l-1.90 0.15 0 8.25 c0 7.20 -0.10 8.20 -0.80 8.20 -0.50 0 -0.70 -0.30 -0.50 -0.75z"/>
  <path d="M235 354.05 c0 -0.30 -1.85 -3.10 -4.10 -6.35 l-4.15 -5.80 -0.15 6.05 c-0.10 4.90 -0.25 6.05 -0.85 6.05 -0.65 0 -0.75 -1.40 -0.75 -8.85 l0 -8.85 4.65 6.65 4.60 6.65 0.15 -6.35 c0.10 -4.70 0.30 -6.25 0.75 -6.10 0.80 0.25 1.15 17.35 0.35 17.35 -0.25 0 -0.50 -0.20 -0.50 -0.45z"/>
  <path d="M268 354 c-1.65 -0.40 -4 -2.50 -4 -3.55 0 -0.90 1.65 -0.40 2.60 0.80 0.80 1.05 1.40 1.25 3.60 1.25 3 0 4.30 -0.95 4.30 -3.15 0 -1.55 -0.70 -2 -5.25 -3.40 -3.40 -1.05 -4.75 -2.30 -4.75 -4.35 0 -2.90 2.75 -4.85 6.35 -4.45 2.05 0.20 4.65 1.85 4.65 2.95 0 0.75 -1.50 0.40 -2.50 -0.60 -1.65 -1.65 -6.40 -0.95 -6.55 0.95 -0.20 2.45 0.40 3 5.10 4.50 3.70 1.20 4.95 2.40 4.95 4.70 0 1.65 -2.40 4.35 -3.85 4.35 -0.50 0 -1.35 0.10 -1.90 0.20 -0.55 0.15 -1.80 0.05 -2.75 -0.20z"/>
  <path d="M435 354.05 c0 -0.30 -1.85 -3.10 -4.10 -6.35 l-4.15 -5.80 -0.15 6.05 c-0.10 4.90 -0.25 6.05 -0.85 6.05 -0.65 0 -0.75 -1.40 -0.75 -8.85 l0 -8.85 4.65 6.65 4.60 6.65 0.15 -6.35 c0.10 -4.70 0.30 -6.25 0.75 -6.10 0.80 0.25 1.15 17.35 0.35 17.35 -0.25 0 -0.50 -0.20 -0.50 -0.45z"/>
  <path d="M452.25 353.95 c-2 -0.45 -3.75 -1.95 -3.75 -3.25 0 -1.10 1 -0.85 2.30 0.55 2.35 2.50 8.20 1.25 8.20 -1.75 0 -1.25 -2.35 -2.75 -5.60 -3.50 -4.55 -1.10 -6 -4.55 -3.15 -7.45 2.45 -2.50 9.25 -1.45 9.25 1.45 0 1.30 -0.30 1.25 -2.10 -0.25 -2.55 -2.15 -6.90 -1.20 -6.90 1.50 0 1.45 1.40 2.50 4.85 3.50 3.75 1.10 5.15 2.40 5.15 4.75 0 1.50 -0.30 2.15 -1.55 3.20 -0.85 0.70 -1.80 1.30 -2.10 1.30 -0.35 0 -1.05 0.10 -1.60 0.20 -0.55 0.15 -1.90 0 -3 -0.25z"/>
  <path d="M40.50 345.85 c0 -4.50 0.15 -8.30 0.30 -8.50 0.15 -0.15 0.60 -0.15 1 0 0.50 0.20 0.70 1.25 0.70 3.95 l0 3.70 3.75 0 3.70 0 0.15 -3.85 c0.10 -2.50 0.35 -3.90 0.80 -4.05 0.45 -0.15 0.60 1.75 0.60 8.35 0 7.25 -0.10 8.55 -0.75 8.55 -0.60 0 -0.75 -0.75 -0.75 -3.75 l0 -3.75 -3.75 0 -3.75 0 0 3.75 c0 3.40 -0.10 3.75 -1 3.75 -0.95 0 -1 -0.35 -1 -8.15z"/>
  <path d="M69.50 350.15 l0 -3.90 -3 -4.15 c-3.05 -4.25 -3.60 -5.45 -2.20 -4.90 0.45 0.15 0.85 0.30 0.95 0.30 0.15 0 1.10 1.35 2.25 2.95 1.10 1.65 2.20 3.10 2.45 3.25 0.25 0.20 1.60 -1.25 3 -3.20 1.40 -1.90 2.75 -3.50 3.05 -3.50 1.20 0 0.75 1.20 -2 5 l-3 4.15 0 3.95 c0 3.15 -0.15 3.90 -0.75 3.90 -0.60 0 -0.75 -0.75 -0.75 -3.85z"/>
  <path d="M89 345.80 c0 -9.60 -0.20 -9.25 4.80 -8.40 5.25 0.85 7.85 3.55 7.90 8.10 0 2.85 -0.95 4.75 -3.30 6.65 -1.60 1.30 -2.40 1.55 -5.65 1.75 l-3.75 0.25 0 -8.35z m8.05 5.35 c1.85 -1.10 2.95 -3.20 2.95 -5.65 0 -3.85 -3.05 -6.50 -7.50 -6.50 l-2 0 0 6.80 0 6.85 2.60 -0.35 c1.45 -0.20 3.20 -0.70 3.95 -1.15z"/>
  <path d="M114.10 345.65 l0.15 -8.40 1.25 -0.10 c5.70 -0.40 9 1.40 9 4.95 0 2.60 -0.75 3.85 -2.80 4.70 l-1.75 0.75 2.30 2.85 c2.50 3.25 2.65 3.60 1.35 3.60 -0.55 0 -1.90 -1.35 -3.30 -3.25 -1.50 -2.05 -2.75 -3.25 -3.35 -3.25 -0.85 0 -0.95 0.40 -0.95 3.25 0 2.95 -0.10 3.25 -1 3.25 -1 0 -1 -0.25 -0.90 -8.35z m8.10 -1.25 c2 -2.80 0.20 -5.40 -3.70 -5.40 l-2.50 0 0 3.25 0 3.25 2.70 0 c2.25 0 2.90 -0.20 3.50 -1.10z"/>
  <path d="M135.50 353.60 c0 -0.60 6.50 -16.30 6.95 -16.75 0.20 -0.20 1.70 2.80 3.30 6.75 1.60 3.95 3.20 7.80 3.55 8.60 0.90 1.85 0.90 1.80 -0.30 1.80 -0.55 0 -1.15 -0.40 -1.30 -0.85 -1.25 -3.80 -1 -3.65 -5.05 -3.65 l-3.70 0 -0.95 2.25 c-0.55 1.25 -1.30 2.25 -1.75 2.25 -0.40 0 -0.75 -0.20 -0.75 -0.40z m10 -5.80 c0 -0.95 -2.70 -7.25 -3 -6.95 -0.55 0.65 -2.50 5.70 -2.50 6.45 0 0.50 0.75 0.70 2.75 0.70 1.50 0 2.75 -0.10 2.75 -0.20z"/>
  <path d="M181.50 345.45 c0 -6.60 0.15 -8.50 0.65 -8.35 0.45 0.20 0.65 2.45 0.75 8.55 0.10 7.20 0 8.35 -0.65 8.35 -0.65 0 -0.75 -1.20 -0.75 -8.55z"/>
  <path d="M200.20 353.30 c-2.50 -1.10 -4.35 -3.95 -4.60 -7.05 -0.60 -7.10 7.05 -11.60 13 -7.70 5 3.25 5.15 10.60 0.30 14 -1.95 1.40 -6.40 1.80 -8.70 0.75z m7.30 -1.90 c2.35 -1.60 3.70 -4.40 3.25 -6.80 -0.40 -2.50 -2.55 -4.85 -5.10 -5.60 -1.75 -0.55 -2.30 -0.50 -4.30 0.40 -1.25 0.55 -2.65 1.60 -3.15 2.35 -1.15 1.80 -1.15 5.70 0 7.45 2.10 3.20 6.30 4.20 9.30 2.20z"/>
  <path d="M292 352.95 c-2.25 -1.30 -3.35 -2.80 -4.10 -5.65 -0.50 -2 -0.50 -2.55 0.40 -4.60 2.45 -6 9.20 -7.45 13.90 -3 4.10 3.85 2.95 10.90 -2.25 13.55 -2.05 1.10 -5.85 0.95 -7.95 -0.30z m8.15 -1.75 c2.90 -2.10 3.65 -6.35 1.75 -9.20 -2.60 -3.80 -6.95 -4.30 -10.30 -1.25 -1.50 1.35 -1.80 1.95 -1.95 4.30 -0.25 3.25 0.80 5.30 3.40 6.60 2.10 1.10 5.30 0.85 7.10 -0.45z"/>
  <path d="M317 345.80 c0 -5.50 0.20 -8.35 0.55 -8.60 1.10 -0.65 1.45 1.15 1.45 8.20 l0 7.10 3.05 0 c2.20 0 3 0.15 2.85 0.65 -0.15 0.40 -1.55 0.65 -4.05 0.75 l-3.85 0.15 0 -8.25z"/>
  <path d="M339.10 353.35 c-2.35 -1.30 -2.65 -2.45 -2.70 -9.35 0 -3.60 0.10 -6.65 0.25 -6.80 0.95 -1 1.35 0.90 1.35 6.60 0 5.95 0.05 6.30 1.25 7.45 1.50 1.55 4.60 1.70 6.30 0.30 1.15 -0.90 1.20 -1.35 1.45 -7.60 0.20 -4.65 0.45 -6.70 0.90 -6.85 0.45 -0.15 0.60 1.40 0.60 6.75 0 7.35 -0.30 8.30 -2.85 9.60 -1.45 0.75 -5.10 0.65 -6.55 -0.10z"/>
  <path d="M364 346.50 l0 -7.50 -2 0 c-1.70 0 -2 -0.15 -2 -1 0 -1 0.25 -1.05 4.90 -0.90 3.90 0.10 4.85 0.30 4.85 0.90 0 0.50 -0.60 0.80 -1.85 0.90 l-1.90 0.15 0 4 c0 2.30 0.20 3.95 0.50 3.95 0.30 0 0.50 0.90 0.50 1.95 0 1.10 -0.20 2.15 -0.50 2.30 -0.25 0.15 -0.50 0.85 -0.50 1.55 0 0.85 -0.25 1.20 -1 1.20 -0.95 0 -1 -0.35 -1 -7.50z"/>
  <path d="M381.50 345.45 c0 -6.60 0.15 -8.50 0.65 -8.35 0.45 0.20 0.65 2.45 0.75 8.55 0.10 7.20 0 8.35 -0.65 8.35 -0.65 0 -0.75 -1.20 -0.75 -8.55z"/>
  <path d="M400.20 353.30 c-2.50 -1.10 -4.35 -3.95 -4.60 -7.05 -0.60 -7.10 7.05 -11.60 13 -7.70 5 3.25 5.15 10.60 0.30 14 -1.95 1.40 -6.40 1.80 -8.70 0.75z m7.30 -1.90 c2.35 -1.60 3.70 -4.40 3.25 -6.80 -0.40 -2.50 -2.55 -4.85 -5.10 -5.60 -1.75 -0.55 -2.30 -0.50 -4.30 0.40 -1.25 0.55 -2.65 1.60 -3.15 2.35 -1.15 1.80 -1.15 5.70 0 7.45 2.10 3.20 6.30 4.20 9.30 2.20z"/>
  <path d="M359.05 298.60 c-1.45 -6.80 -2.90 -12.65 -3.15 -12.95 -0.30 -0.35 -0.80 -0.65 -1.10 -0.65 -0.90 0 -3.30 -3.90 -3.30 -5.35 0 -1.05 0.15 -1.15 0.70 -0.70 0.60 0.50 0.65 0.30 0.45 -1.20 -0.20 -1.35 -0.05 -1.75 0.55 -1.75 1 0 1 -0.45 0.05 -4.25 -1.15 -4.85 -1.10 -5.25 1.20 -5.25 l1.95 0 1 4.35 c0.55 2.45 1.95 9.05 3.15 14.75 1.20 5.70 2.30 10.25 2.45 10.15 0.20 -0.10 3 -7.20 6.30 -15.70 3.25 -8.55 6.05 -15.55 6.25 -15.55 0.15 0 0.50 0.80 0.80 1.70 1.20 3.85 11.30 29.80 11.55 29.60 0.10 -0.15 1.60 -6.75 3.30 -14.65 l3.05 -14.40 2.20 -0.15 c2.05 -0.15 2.15 -0.10 1.95 1 -1.90 9.50 -9.20 42.90 -9.40 42.90 -0.15 0 -3.20 -7.70 -6.70 -17.10 -3.55 -9.45 -6.55 -17.30 -6.75 -17.50 -0.15 -0.20 -2.40 5.35 -5 12.25 -4.40 11.80 -8.55 22.45 -8.75 22.70 -0.05 0.05 -1.30 -5.45 -2.75 -12.25z"/>
  <path d="M251.85 309.35 c-0.30 -0.75 -19.30 -27.90 -21.10 -30.10 l-1.20 -1.50 0 15.15 -0.05 15.10 -2 0 -2 0 0 -21.85 c0.05 -17.35 0.15 -21.75 0.65 -21.10 0.35 0.45 5.45 7.70 11.35 16.15 l10.75 15.30 0.15 -15 0.10 -15 2.25 0 2.25 0 0 21.75 c0 19.45 -0.20 23.50 -1.15 21.10z"/>
  <path d="M128.80 308.40 c-0.15 -0.65 -0.30 -5.15 -0.30 -10 l0 -8.90 -9.50 0 -9.50 0 0 9.25 0 9.25 -2 0 -2 0 0 -20.75 0 -20.75 2 0 2 0 0 9.25 0 9.25 9.50 0 9.50 0 0 -9.25 0 -9.25 1.95 0 c2.35 0 2.50 0.40 2.30 7.65 -0.15 4.40 -0.05 4.85 0.45 3.35 0.50 -1.65 0.55 -1.55 0.70 2.25 0.10 2.20 0 5.45 -0.20 7.25 -0.30 2.80 -0.40 3.05 -0.75 1.75 -0.20 -0.80 -0.25 3.15 -0.10 8.90 0.30 10.35 0.30 10.35 -0.80 10.35 -0.60 0 -1.05 0.30 -1.05 0.75 0 1.20 -1.85 0.90 -2.20 -0.35z"/>
  <path d="M163.30 307.65 c0.45 -2.55 0.60 -2.75 1.80 -2.10 0.90 0.50 2 -0.50 11.20 -9.90 5.65 -5.70 10.60 -11.05 11.05 -11.90 0.95 -1.75 1.05 -6.05 0.15 -7.75 -0.90 -1.75 -3 -3.95 -4.60 -4.80 -1.60 -0.85 -6.55 -0.95 -8.05 -0.15 -3.25 1.70 -5.45 5.60 -5 8.90 0.25 1.65 0.15 2.05 -0.50 2.05 -0.70 0 -0.75 -0.25 -0.30 -1.35 0.40 -1.15 0.40 -1.30 -0.10 -0.75 -0.35 0.30 -1.40 0.60 -2.35 0.60 l-1.75 0 0.30 -2.70 c0.45 -4.25 2.85 -8 6.35 -9.80 1.25 -0.65 2 -1.45 2.25 -2.35 0.30 -1.35 0.35 -1.35 0.90 -0.40 0.50 0.85 1.15 1 4.35 1 2.95 0 4.25 0.25 6 1.15 5.05 2.65 7.65 6.70 7.70 12.10 0 5.30 -1.30 7.40 -10.35 16.40 l-7.65 7.60 8.65 0.05 c4.75 0.05 8.95 0.10 9.30 0.15 0.35 0 0.65 0.95 0.75 2.20 l0.15 2.15 -14.70 -0.15 c-13.80 -0.15 -14.70 -0.10 -14.45 0.75 0.15 0.55 -0.05 0.85 -0.60 0.85 -0.70 0 -0.80 -0.30 -0.50 -1.85z"/>
  <path d="M300 307.95 c-5.90 -1.15 -11.90 -5.95 -14.60 -11.80 -2.05 -4.35 -2.55 -10.90 -1.15 -15.20 4.90 -15.20 23.40 -19.90 35 -8.90 8.55 8.10 8.60 21.70 0.05 30.25 -5.05 5.05 -12 7.10 -19.30 5.65z m11.90 -5.40 c5.80 -3 9.15 -8.10 9.50 -14.50 0.25 -5 -1.10 -8.75 -4.45 -12.30 -9.50 -10.05 -25.70 -5.70 -28.95 7.75 -1.80 7.60 2.85 16.60 10.10 19.45 3.65 1.45 10.65 1.25 13.80 -0.40z"/>
 </g>
 <g fill="#e9ffff">
  <path d="M236 444.10 c-0.95 -0.10 -2.75 -0.45 -4 -0.85 -1.25 -0.35 -3.70 -0.80 -5.45 -1 -1.80 -0.15 -3.80 -0.60 -4.50 -0.95 -0.70 -0.35 -2.30 -0.80 -3.50 -1 -1.20 -0.20 -2.80 -0.65 -3.50 -1 -0.70 -0.40 -2.20 -0.90 -3.30 -1.20 -2.55 -0.65 -7.35 -2.35 -8.55 -3 -0.50 -0.30 -3.30 -1.70 -6.20 -3.10 -9.25 -4.55 -14.10 -7.65 -21.95 -13.95 -6.40 -5.10 -15.30 -13.80 -18.05 -17.55 -1.25 -1.70 -3 -3.90 -3.90 -4.90 -0.90 -1.05 -2.20 -2.85 -2.95 -4.10 -0.70 -1.25 -1.85 -2.95 -2.50 -3.80 -0.60 -0.85 -1.15 -1.75 -1.15 -1.95 0 -0.25 -0.30 -0.80 -0.70 -1.20 -0.70 -0.80 -4.60 -8.50 -6.30 -12.30 -0.45 -1.10 -1.20 -2.80 -1.65 -3.75 -0.45 -0.95 -0.95 -2.40 -1.15 -3.25 -0.20 -0.80 -0.50 -1.75 -0.75 -2.05 -0.25 -0.25 -0.75 -1.80 -1.15 -3.40 -0.45 -1.60 -1 -3.15 -1.20 -3.50 -0.25 -0.30 -0.60 -1.70 -0.75 -3.15 -0.15 -1.45 -0.65 -3.30 -1.10 -4.20 -0.55 -1 -0.80 -2.45 -0.65 -4 0.05 -1.35 -0.05 -2.55 -0.35 -2.65 -0.30 -0.15 -0.15 -0.45 0.25 -0.75 0.40 -0.30 0.50 -0.55 0.25 -0.55 -0.30 0 -0.90 -1.50 -1.40 -3.35 -0.70 -2.80 -0.85 -5.70 -0.85 -16.50 0 -12.50 0.05 -13.15 0.95 -13.15 0.85 0 0.95 0.80 1.20 14.90 0.20 12.25 0.45 15.80 1.30 20.35 1.35 6.85 2.10 9.85 2.60 10.50 0.25 0.25 0.45 0.90 0.45 1.50 0 1 1.40 5.55 3.50 11.50 1.45 4.10 6.70 14.65 9.60 19.40 4.45 7.30 12 16.90 17.25 21.90 4.15 4 10.65 9.65 12.80 11.25 16.25 11.70 30.30 18.10 48.70 22.05 6.30 1.35 6.70 1.40 23.15 1.40 16.35 -0.05 16.90 -0.05 23.20 -1.40 19.85 -4.20 38.20 -12.90 52.55 -24.90 4.55 -3.80 15.20 -14.60 17.65 -17.95 0.90 -1.25 2.75 -3.75 4.10 -5.60 1.40 -1.85 2.50 -3.45 2.50 -3.60 0 -0.15 0.90 -1.75 2 -3.55 2.70 -4.45 6.10 -11.25 5.60 -11.25 -0.25 0 -0.75 0.60 -1.10 1.40 -3.05 6.05 -11.60 18.05 -16.75 23.55 -5 5.40 -15.65 14 -22.20 17.95 -8.60 5.25 -22.40 10.60 -32.85 12.80 -21.40 4.50 -42.35 2.20 -63.20 -6.90 -2.60 -1.10 -5.85 -2.70 -7.25 -3.50 -6.65 -3.90 -10 -6.10 -13.10 -8.45 -4.05 -3.10 -14.15 -12.80 -16.35 -15.65 -6.70 -8.80 -9.25 -12.65 -12.75 -19.40 -1.95 -3.75 -5.35 -12.40 -6.80 -17.30 -1 -3.55 -1.10 -4.35 -0.55 -4.95 0.60 -0.55 0.75 -0.25 1.05 2 0.20 1.50 0.65 3.40 1 4.20 0.35 0.85 0.80 2.05 1 2.75 0.40 1.50 2.65 7.35 3.30 8.45 0.20 0.45 1.10 2.25 1.95 4.05 0.90 1.80 2.25 4.25 3.05 5.50 0.80 1.25 1.60 2.60 1.80 3 0.15 0.40 0.45 0.85 0.65 1 0.15 0.15 1.05 1.40 2 2.75 1.80 2.75 6 7.90 6.65 8.15 0.20 0.10 0.90 0.90 1.50 1.80 1 1.40 6.70 6.90 9.95 9.55 5.10 4.20 6.40 5.20 8.15 6.35 2.40 1.55 6.90 4.10 9.05 5.10 0.85 0.40 1.75 0.95 1.90 1.25 0.20 0.30 0.70 0.55 1.10 0.55 0.70 0 3.90 1.30 7.95 3.25 0.85 0.40 2.30 0.90 3.25 1.05 0.95 0.20 2.20 0.60 2.75 0.95 0.55 0.35 2.05 0.80 3.25 1 1.25 0.20 2.70 0.60 3.25 0.90 0.50 0.25 2.85 0.70 5.15 0.90 2.30 0.25 5.40 0.80 6.90 1.25 2.25 0.65 4.70 0.75 12.85 0.60 6.55 -0.10 10.45 -0.35 11.15 -0.75 0.55 -0.30 3 -0.75 5.50 -0.90 2.45 -0.20 5.10 -0.65 5.85 -1.05 0.75 -0.35 2.45 -0.80 3.75 -1 1.30 -0.20 3.15 -0.75 4.10 -1.25 0.95 -0.55 2.20 -0.95 2.75 -0.95 0.60 0 1.50 -0.35 2.05 -0.75 0.50 -0.40 1.30 -0.75 1.70 -0.75 0.65 0 5.20 -2 7 -3.05 0.40 -0.25 1.30 -0.70 2 -0.95 0.70 -0.30 1.60 -0.75 2 -1 0.40 -0.30 1.30 -0.80 2 -1.15 0.70 -0.35 2.25 -1.30 3.50 -2.10 1.25 -0.80 2.60 -1.70 3.05 -2 2.15 -1.35 3.80 -2.55 4.55 -3.30 0.50 -0.50 1.70 -1.50 2.75 -2.30 1.05 -0.75 2.15 -1.60 2.45 -1.90 8.55 -7.65 13.90 -13.70 17.95 -20.20 2.15 -3.45 5.35 -8.05 5.75 -8.30 0.25 -0.15 0.50 -0.80 0.50 -1.45 0 -0.65 0.45 -1.55 1 -2.05 0.55 -0.50 1 -1.35 1 -1.90 0 -0.55 0.40 -1.45 0.85 -1.95 0.50 -0.55 1.10 -1.65 1.40 -2.50 0.50 -1.55 1.95 -2.90 2.50 -2.30 0.15 0.15 -0.30 1.60 -1.05 3.20 -2.45 5.50 -2.70 6.20 -2.30 6.20 0.25 0 0.70 -0.50 1 -1.10 0.40 -0.85 0.55 -0.95 0.55 -0.35 0.05 0.95 -5.55 12.20 -6.70 13.45 -0.40 0.45 -0.75 1 -0.75 1.25 0 0.80 -4.70 7.50 -9.30 13.25 -10.65 13.35 -24.90 24.45 -40.95 31.95 -2.45 1.15 -5.35 2.55 -6.35 3.10 -1 0.50 -2.15 0.95 -2.50 0.95 -0.40 0 -1.55 0.45 -2.65 1 -1.10 0.55 -2.35 1 -2.85 1 -0.45 0 -1.95 0.40 -3.25 0.95 -1.30 0.50 -2.55 0.95 -2.80 0.95 -1.10 0 -4.15 0.75 -4.65 1.15 -0.30 0.20 -1.85 0.55 -3.50 0.70 -1.60 0.20 -4.40 0.70 -6.20 1.15 -2.55 0.60 -6.15 0.80 -16.50 0.80 -7.30 0.05 -14.05 0 -15 -0.10z"/>
  <path d="M360.05 371.25 c0 -0.25 0.45 -1.40 0.95 -2.50 0.65 -1.35 0.95 -1.70 0.95 -1 0.05 0.55 -0.40 1.70 -0.95 2.50 -0.55 0.85 -1 1.30 -0.95 1z"/>
  <path d="M362.80 363.90 c0.45 -1.35 0.90 -2.40 1 -2.40 0.60 0 0.05 2.55 -0.80 3.55 l-1 1.20 0.80 -2.35z"/>
  <path d="M361.65 363.65 c-1.55 -0.55 -0.05 -5.15 1.65 -5.15 0.85 0 0.95 -0.80 0.10 -1.15 -0.40 -0.15 -0.30 -0.30 0.25 -0.30 1 -0.05 1.15 -1.35 0.25 -1.70 -0.35 -0.15 -0.15 -0.30 0.50 -0.30 0.95 -0.05 1.10 0.20 1.10 1.80 0 1.25 -0.40 2.25 -1.20 3.10 -0.65 0.75 -1.35 1.90 -1.60 2.60 -0.25 0.70 -0.75 1.20 -1.05 1.10z"/>
  <path d="M365.90 350.65 c-0.25 -1.35 0.15 -3.65 0.65 -3.65 0.60 0 0.60 3.85 0 4.25 -0.25 0.15 -0.55 -0.15 -0.65 -0.60z"/>
  <path d="M163.10 347.40 c-1.10 -7.15 -1.20 -8.30 -0.70 -8.60 0.25 -0.15 0.35 0.25 0.20 0.95 -0.15 0.90 0 1.25 0.60 1.25 0.70 0 0.80 0.75 0.80 5 0 2.75 -0.10 5 -0.20 5 -0.10 0 -0.40 -1.65 -0.70 -3.60z"/>
  <path d="M162.05 319.35 c-0.15 -1.85 1.75 -15.05 3.45 -23.85 0.85 -4.50 3.55 -15.20 4.05 -16 0.75 -1.30 0.55 1.90 -0.25 3.40 -0.35 0.75 -0.80 2.65 -1 4.20 -0.15 1.60 -0.60 3.60 -1 4.50 -0.40 0.90 -0.95 3.35 -1.25 5.40 -0.25 2.05 -0.80 4.70 -1.15 5.90 -0.50 1.80 -0.50 2.20 0.10 2.60 0.50 0.30 1.05 0.20 1.75 -0.35 0.55 -0.45 0.20 0 -0.85 1 -1 0.95 -1.70 1.90 -1.60 2 0.35 0.30 -0.75 6.80 -1.55 9.35 -0.35 1.25 -0.70 2.05 -0.70 1.85z"/>
  <path d="M132.85 288.25 c-0.65 -3.80 -0.40 -8.70 0.65 -11.60 0.55 -1.60 1 -3.55 1 -4.40 0.05 -0.80 0.40 -2.40 0.80 -3.50 0.45 -1.10 1.05 -3.35 1.40 -5 0.35 -1.65 0.85 -3.45 1.15 -4 0.30 -0.55 0.70 -2 0.90 -3.25 0.20 -1.25 0.70 -2.70 1.05 -3.25 0.40 -0.55 0.70 -1.55 0.70 -2.25 0 -0.70 0.45 -2.15 1 -3.25 0.55 -1.10 1 -2.45 1 -3 0 -0.55 0.45 -1.90 1 -3 0.55 -1.10 1 -2.30 1 -2.75 0 -0.40 0.60 -1.85 1.25 -3.25 0.70 -1.35 1.25 -2.80 1.25 -3.15 0 -0.35 0.45 -1.50 1 -2.60 0.55 -1.10 1 -2.40 1 -2.90 0 -0.55 0.35 -1.25 0.75 -1.60 0.40 -0.35 0.75 -0.95 0.75 -1.35 0 -0.65 0.60 -2.10 3.55 -8.45 0.55 -1.10 0.95 -2.40 0.95 -2.85 0 -0.45 0.20 -0.90 0.45 -1.05 0.40 -0.25 2.30 -3.95 3.50 -6.80 0.30 -0.70 0.75 -1.60 1.05 -2 0.25 -0.40 1.60 -3.10 3 -6 1.40 -2.90 3.55 -7.05 4.75 -9.25 1.20 -2.20 2.55 -4.65 3 -5.50 0.40 -0.80 1.30 -2.40 2 -3.50 0.65 -1.10 1.50 -2.55 1.85 -3.25 0.35 -0.70 1.35 -2.25 2.15 -3.50 1.50 -2.35 2.70 -4.35 3.85 -6.50 0.35 -0.70 2.30 -3.70 4.25 -6.65 2 -3 3.65 -5.60 3.65 -5.80 0 -0.25 0.35 -0.70 0.75 -1.05 0.40 -0.35 1.45 -1.75 2.25 -3.20 0.85 -1.40 2.30 -3.55 3.25 -4.80 0.90 -1.25 1.70 -2.45 1.70 -2.70 0.05 -0.20 0.55 -1.05 1.20 -1.80 0.60 -0.75 2 -2.70 3.10 -4.30 1.10 -1.55 2.35 -3.25 2.75 -3.65 0.40 -0.45 1.45 -1.85 2.25 -3.05 0.85 -1.25 4.55 -6.10 8.25 -10.85 3.70 -4.75 7.50 -9.60 8.40 -10.85 0.90 -1.20 2.15 -2.75 2.80 -3.40 0.60 -0.60 2.50 -2.85 4.15 -4.90 1.70 -2.05 3.80 -4.55 4.70 -5.50 0.85 -0.95 3.55 -3.90 5.90 -6.50 14.35 -15.75 27.60 -29.50 29.25 -30.35 1.35 -0.70 1.55 -0.70 2.15 0.15 0.90 1.20 0.80 8.45 -0.15 13.70 -1.05 5.70 -1.05 42.30 0 45.70 0.40 1.35 0.90 4.05 1.10 6 0.15 1.95 0.65 4.30 1 5.20 0.35 0.90 0.80 2.85 1 4.25 0.20 1.45 0.60 3.15 0.95 3.85 0.35 0.70 0.80 2.25 1 3.50 0.20 1.25 0.65 2.95 1.05 3.75 0.35 0.85 0.90 2.40 1.15 3.50 0.25 1.10 1.10 3.60 1.80 5.50 0.75 1.95 1.60 4.30 1.90 5.25 0.30 0.95 0.85 2.10 1.20 2.55 0.35 0.40 0.65 1.10 0.65 1.45 0 0.40 0.45 1.65 1 2.85 0.55 1.20 1.45 3.20 2.05 4.55 1.95 4.40 8.15 16.85 8.45 17.10 0.20 0.15 0.50 0.70 0.70 1.25 0.15 0.55 1.05 2.20 2 3.60 0.95 1.45 1.90 3.15 2.05 3.75 0.20 0.65 0.65 1.50 1 1.90 0.30 0.40 1.80 2.90 3.25 5.50 1.50 2.60 2.85 4.85 3.10 4.90 0.20 0.10 0.40 0.50 0.40 0.85 0 0.35 0.50 1.30 1.15 2.10 1.25 1.55 5.35 8 5.40 8.55 0 0.20 0.80 1.35 1.70 2.60 0.95 1.25 2.40 3.40 3.25 4.80 0.80 1.45 1.85 2.85 2.25 3.20 0.40 0.35 0.75 0.80 0.75 1 0 0.20 5.30 8.30 11.75 18 6.45 9.70 11.75 17.70 11.75 17.80 0 0.20 1.70 2.90 4.35 6.80 0.65 0.90 1.40 2.25 1.70 3.05 0.30 0.75 0.85 1.35 1.20 1.35 0.80 0 1.95 3.20 1.60 4.55 -0.15 0.50 -0.05 0.85 0.20 0.65 0.25 -0.15 0.50 0.15 0.50 0.65 0.05 0.50 0.15 1.50 0.20 2.20 0.15 1.10 0 1.30 -0.75 1.10 -0.90 -0.25 -1.65 -1.20 -4.25 -5.45 -1.75 -2.85 -4.15 -6.45 -4.85 -7.20 -0.35 -0.45 -1.30 -1.80 -2.15 -3 -4.55 -6.70 -16.25 -22.20 -26.15 -34.60 -3.90 -4.90 -7.10 -9.05 -7.10 -9.15 0 -0.25 -1.30 -1.90 -2.50 -3.20 -1.15 -1.20 -4.90 -6 -8.25 -10.55 -1.65 -2.20 -4.10 -5.45 -5.45 -7.15 -1.30 -1.70 -3.45 -4.65 -4.75 -6.55 -1.25 -1.90 -2.95 -4.40 -3.80 -5.60 -3.10 -4.40 -7.15 -10.50 -8.45 -12.70 -0.75 -1.25 -2.35 -3.80 -3.55 -5.75 -1.25 -1.90 -2.60 -4.15 -3 -5 -0.40 -0.80 -1.30 -2.40 -2 -3.50 -0.65 -1.10 -2.80 -5.25 -4.80 -9.25 -1.95 -4 -4 -8.05 -4.50 -9.05 -0.50 -1 -0.95 -2.15 -0.95 -2.50 0 -0.35 -0.30 -1 -0.65 -1.40 -0.40 -0.45 -1.05 -1.80 -1.45 -3.05 -1.10 -3.20 -1.90 -5.40 -3 -8.10 -0.50 -1.30 -0.90 -2.70 -0.90 -3.15 0 -0.45 -0.35 -1.50 -0.80 -2.30 -0.40 -0.85 -0.95 -2.45 -1.10 -3.60 -0.70 -3.85 -0.85 -3.65 -9.35 9.65 -1.90 3.05 -4.20 6.60 -5.05 7.90 -3.80 6 -7.35 11.80 -14.05 23 -0.60 1 -1.85 3.20 -2.70 4.85 -0.85 1.65 -1.75 3.10 -1.95 3.25 -0.20 0.15 -1.20 1.85 -2.25 3.75 -1 1.95 -2.75 5.10 -3.80 7 -1.10 1.95 -2.45 4.40 -3 5.50 -0.55 1.10 -1.20 2.35 -1.45 2.75 -0.30 0.40 -0.75 1.30 -1 2 -0.30 0.70 -1.05 2.15 -1.75 3.25 -0.65 1.10 -1.35 2.35 -1.50 2.75 -0.65 1.50 -1.25 2.75 -1.70 3.50 -0.25 0.40 -0.70 1.30 -1 2 -0.30 0.70 -0.75 1.60 -0.95 2 -0.25 0.40 -0.90 1.75 -1.45 3 -0.60 1.25 -2.45 5.20 -4.15 8.75 -1.70 3.60 -3.55 7.50 -4.10 8.75 -0.55 1.25 -1.40 3.15 -1.90 4.25 -1.40 3.20 -2.30 5.30 -3.70 9 -0.75 1.95 -1.75 4.40 -2.30 5.50 -0.55 1.10 -1.10 2.70 -1.30 3.50 -0.20 0.85 -0.65 1.95 -1 2.50 -0.30 0.55 -0.75 1.80 -0.95 2.75 -0.20 0.95 -0.70 2.20 -1.05 2.75 -0.40 0.55 -0.70 1.40 -0.70 1.90 0 1.20 -1.45 4.60 -1.80 4.20 -0.55 -0.55 5.75 -17.60 11.55 -31.10 2.35 -5.60 3.20 -7.40 8.75 -19 5.20 -10.95 6.15 -12.90 8 -16.25 1 -1.80 3.30 -6.05 5.10 -9.50 2.75 -5.20 6.40 -11.70 13.90 -24.80 0.50 -0.85 1.85 -3.10 3 -5 1.20 -1.90 3.35 -5.45 4.85 -7.95 1.50 -2.45 3.25 -5.30 3.90 -6.25 0.65 -0.95 3.55 -5.55 6.55 -10.25 7.70 -12.20 9.65 -15.15 10.20 -15.50 0.25 -0.15 0.60 0.35 0.80 1.10 0.15 0.75 0.65 2.55 1.05 3.90 0.40 1.40 1.05 3.65 1.40 5.10 3.05 11.20 14.45 34.85 24.30 50.40 1.40 2.25 9.95 15.05 11.95 17.95 0.95 1.40 4.10 5.65 7 9.50 2.90 3.80 5.70 7.55 6.25 8.30 1.30 1.80 3.30 4.35 7.25 9.35 1.80 2.20 5.05 6.35 7.25 9.15 2.20 2.80 5.35 6.80 7.05 8.90 7.10 8.95 21.05 27.95 25.15 34.25 1.40 2.10 2.65 3.85 2.80 3.85 1 0 -3.30 -7 -18.15 -29.50 -15.50 -23.45 -20.70 -31.35 -22.85 -34.75 -1.05 -1.65 -2.40 -3.80 -3 -4.75 -7 -11.05 -16.85 -29.20 -22.10 -40.75 -8.45 -18.45 -13.25 -34.15 -16.10 -52.50 -1.85 -11.65 -2.10 -23.55 -0.85 -39.75 0.40 -5.35 0.90 -12.20 1.05 -15.25 l0.30 -5.50 -4.15 4.25 c-15.10 15.50 -31 32.75 -38.15 41.50 -1.70 2.05 -6.20 7.70 -12 15.05 -2.50 3.15 -8.95 11.60 -9.75 12.75 -0.40 0.60 -2.10 2.95 -3.75 5.20 -8.55 11.75 -15.65 22.60 -24.60 37.50 -7.05 11.80 -9 15.40 -15.55 28.50 -5.25 10.55 -6.05 12.20 -9.45 20.25 -0.95 2.20 -2 4.70 -2.40 5.50 -1.25 2.70 -7.05 18.55 -8 21.75 -0.35 1.25 -1.15 3.70 -1.70 5.50 -2.65 7.90 -6.50 24 -7.95 33.25 l-0.40 2.50 -0.35 -2z"/>
  <path d="M173.55 266.35 c0.05 -0.90 0.85 -2.70 0.90 -2 0.05 0.30 0.20 0.90 0.35 1.30 0.15 0.40 -0.10 0.85 -0.50 1 -0.45 0.20 -0.80 0.05 -0.75 -0.30z"/>
 </g>
</svg>